<?xml version='1.0' encoding='utf8'?>
<svg class="toyplot-canvas-Canvas" xmlns:toyplot="http://www.sandia.gov/toyplot" xmlns:xlink="http://www.w3.org/1999/xlink" xmlns="http://www.w3.org/2000/svg" width="1000.0px" height="1575.0px" viewBox="0 0 1000.0 1575.0" preserveAspectRatio="xMidYMid meet" style="background-color:transparent;border-color:#292724;border-style:none;border-width:1.0;fill:rgb(16.1%,15.3%,14.1%);fill-opacity:1.0;font-family:Helvetica;font-size:12px;opacity:1.0;stroke:rgb(16.1%,15.3%,14.1%);stroke-opacity:1.0;stroke-width:1.0" id="t896da3a8481a4fb0aa0e2359e7f879a9"><g class="toyplot-coordinates-Cartesian" id="tdba7670e8eb94bb391113e540d2274cf"><clipPath id="t99b7907863074e35b66f6495a7eafb25"><rect x="30.0" y="30.0" width="940.0" height="1515.0" /></clipPath><g clip-path="url(#t99b7907863074e35b66f6495a7eafb25)"><g class="toytree-mark-Toytree" id="te879da4107d6408a87728fc39e3182f3"><g class="toytree-Edges" style="fill:none;stroke:rgb(14.9%,14.9%,14.9%);stroke-linecap:round;stroke-opacity:1;stroke-width:2"><path d="M 51.4 125.8 L 51.4 70.1 L 99.5 70.1" id="188,187" /><path d="M 51.4 125.8 L 51.4 181.5 L 141.3 181.5" id="188,186" /><path d="M 141.3 181.5 L 141.3 269.8 L 171.4 269.8" id="186,185" /><path d="M 171.4 269.8 L 171.4 137.6 L 190.3 137.6" id="185,184" /><path d="M 171.4 269.8 L 171.4 402.0 L 191.4 402.0" id="185,183" /><path d="M 190.3 137.6 L 190.3 116.4 L 275.6 116.4" id="184,182" /><path d="M 190.3 137.6 L 190.3 158.8 L 213.2 158.8" id="184,181" /><path d="M 191.4 402.0 L 191.4 283.9 L 206.8 283.9" id="183,180" /><path d="M 191.4 402.0 L 191.4 520.2 L 194.6 520.2" id="183,179" /><path d="M 213.2 158.8 L 213.2 178.1 L 241.8 178.1" id="181,178" /><path d="M 206.8 283.9 L 206.8 241.7 L 227.4 241.7" id="180,177" /><path d="M 206.8 283.9 L 206.8 326.1 L 211.2 326.1" id="180,176" /><path d="M 194.6 520.2 L 194.6 437.5 L 264.0 437.5" id="179,175" /><path d="M 194.6 520.2 L 194.6 602.8 L 244.5 602.8" id="179,174" /><path d="M 241.8 178.1 L 241.8 162.7 L 348.7 162.7" id="178,173" /><path d="M 241.8 178.1 L 241.8 193.5 L 271.6 193.5" id="178,172" /><path d="M 227.4 241.7 L 227.4 224.4 L 348.3 224.4" id="177,171" /><path d="M 227.4 241.7 L 227.4 259.1 L 253.8 259.1" id="177,170" /><path d="M 211.2 326.1 L 211.2 301.5 L 271.0 301.5" id="176,169" /><path d="M 211.2 326.1 L 211.2 350.7 L 268.3 350.7" id="176,168" /><path d="M 264.0 437.5 L 264.0 457.7 L 288.7 457.7" id="175,167" /><path d="M 244.5 602.8 L 244.5 665.0 L 258.0 665.0" id="174,166" /><path d="M 253.8 259.1 L 253.8 270.7 L 300.6 270.7" id="170,165" /><path d="M 268.3 350.7 L 268.3 332.4 L 275.4 332.4" id="168,164" /><path d="M 268.3 350.7 L 268.3 369.0 L 292.7 369.0" id="168,163" /><path d="M 288.7 457.7 L 288.7 482.8 L 318.9 482.8" id="167,162" /><path d="M 258.0 665.0 L 258.0 591.8 L 309.2 591.8" id="166,161" /><path d="M 258.0 665.0 L 258.0 738.3 L 279.8 738.3" id="166,160" /><path d="M 292.7 369.0 L 292.7 382.5 L 317.6 382.5" id="163,159" /><path d="M 318.9 482.8 L 318.9 459.7 L 322.3 459.7" id="162,158" /><path d="M 318.9 482.8 L 318.9 505.9 L 378.5 505.9" id="162,157" /><path d="M 309.2 591.8 L 309.2 567.7 L 349.4 567.7" id="161,156" /><path d="M 309.2 591.8 L 309.2 615.9 L 340.4 615.9" id="161,155" /><path d="M 279.8 738.3 L 279.8 675.6 L 330.1 675.6" id="160,154" /><path d="M 279.8 738.3 L 279.8 801.0 L 325.4 801.0" id="160,153" /><path d="M 317.6 382.5 L 317.6 394.1 L 332.0 394.1" id="159,152" /><path d="M 322.3 459.7 L 322.3 471.2 L 344.5 471.2" id="158,151" /><path d="M 378.5 505.9 L 378.5 517.5 L 395.6 517.5" id="157,150" /><path d="M 349.4 567.7 L 349.4 579.2 L 395.3 579.2" id="156,149" /><path d="M 340.4 615.9 L 340.4 629.4 L 394.4 629.4" id="155,148" /><path d="M 330.1 675.6 L 330.1 687.2 L 355.2 687.2" id="154,147" /><path d="M 325.4 801.0 L 325.4 721.9 L 363.4 721.9" id="153,146" /><path d="M 325.4 801.0 L 325.4 880.0 L 340.9 880.0" id="153,145" /><path d="M 394.4 629.4 L 394.4 640.9 L 408.3 640.9" id="148,144" /><path d="M 363.4 721.9 L 363.4 733.5 L 389.0 733.5" id="146,143" /><path d="M 340.9 880.0 L 340.9 1003.3 L 376.4 1003.3" id="145,142" /><path d="M 376.4 1003.3 L 376.4 855.4 L 397.5 855.4" id="142,141" /><path d="M 376.4 1003.3 L 376.4 1151.1 L 385.1 1151.1" id="142,140" /><path d="M 397.5 855.4 L 397.5 798.6 L 421.4 798.6" id="141,139" /><path d="M 397.5 855.4 L 397.5 912.3 L 469.0 912.3" id="141,138" /><path d="M 385.1 1151.1 L 385.1 1237.1 L 398.9 1237.1" id="140,137" /><path d="M 421.4 798.6 L 421.4 779.8 L 428.8 779.8" id="139,136" /><path d="M 421.4 798.6 L 421.4 817.4 L 474.3 817.4" id="139,135" /><path d="M 469.0 912.3 L 469.0 887.8 L 531.2 887.8" id="138,134" /><path d="M 469.0 912.3 L 469.0 936.8 L 486.4 936.8" id="138,133" /><path d="M 398.9 1237.1 L 398.9 1139.9 L 419.0 1139.9" id="137,132" /><path d="M 398.9 1237.1 L 398.9 1334.2 L 421.8 1334.2" id="137,131" /><path d="M 474.3 817.4 L 474.3 831.9 L 478.1 831.9" id="135,130" /><path d="M 486.4 936.8 L 486.4 962.8 L 532.5 962.8" id="133,129" /><path d="M 419.0 1139.9 L 419.0 1092.2 L 453.5 1092.2" id="132,128" /><path d="M 419.0 1139.9 L 419.0 1187.7 L 450.0 1187.7" id="132,127" /><path d="M 421.8 1334.2 L 421.8 1288.9 L 450.9 1288.9" id="131,126" /><path d="M 421.8 1334.2 L 421.8 1379.5 L 445.7 1379.5" id="131,125" /><path d="M 478.1 831.9 L 478.1 845.4 L 525.1 845.4" id="130,124" /><path d="M 532.5 962.8 L 532.5 937.9 L 623.9 937.9" id="129,123" /><path d="M 532.5 962.8 L 532.5 987.6 L 548.3 987.6" id="129,122" /><path d="M 453.5 1092.2 L 453.5 1103.8 L 496.9 1103.8" id="128,121" /><path d="M 450.0 1187.7 L 450.0 1152.0 L 479.5 1152.0" id="127,120" /><path d="M 450.0 1187.7 L 450.0 1223.3 L 458.4 1223.3" id="127,119" /><path d="M 445.7 1379.5 L 445.7 1325.5 L 459.6 1325.5" id="125,118" /><path d="M 445.7 1379.5 L 445.7 1433.5 L 464.6 1433.5" id="125,117" /><path d="M 525.1 845.4 L 525.1 856.9 L 528.1 856.9" id="124,116" /><path d="M 623.9 937.9 L 623.9 949.5 L 624.7 949.5" id="123,115" /><path d="M 548.3 987.6 L 548.3 1002.5 L 615.7 1002.5" id="122,114" /><path d="M 479.5 1152.0 L 479.5 1134.6 L 535.5 1134.6" id="120,113" /><path d="M 479.5 1152.0 L 479.5 1169.3 L 517.4 1169.3" id="120,112" /><path d="M 458.4 1223.3 L 458.4 1242.6 L 464.1 1242.6" id="119,111" /><path d="M 459.6 1325.5 L 459.6 1339.0 L 491.4 1339.0" id="118,110" /><path d="M 464.6 1433.5 L 464.6 1396.9 L 515.8 1396.9" id="117,109" /><path d="M 464.6 1433.5 L 464.6 1470.2 L 513.2 1470.2" id="117,108" /><path d="M 615.7 1002.5 L 615.7 1017.0 L 621.7 1017.0" id="114,107" /><path d="M 517.4 1169.3 L 517.4 1180.9 L 533.0 1180.9" id="112,106" /><path d="M 464.1 1242.6 L 464.1 1227.2 L 510.3 1227.2" id="111,105" /><path d="M 464.1 1242.6 L 464.1 1258.1 L 518.0 1258.1" id="111,104" /><path d="M 491.4 1339.0 L 491.4 1350.6 L 575.7 1350.6" id="110,103" /><path d="M 515.8 1396.9 L 515.8 1381.5 L 518.8 1381.5" id="109,102" /><path d="M 515.8 1396.9 L 515.8 1412.3 L 543.5 1412.3" id="109,101" /><path d="M 513.2 1470.2 L 513.2 1447.0 L 533.5 1447.0" id="108,100" /><path d="M 513.2 1470.2 L 513.2 1493.3 L 540.2 1493.3" id="108,99" /><path d="M 621.7 1017.0 L 621.7 1030.5 L 639.5 1030.5" id="107,98" /><path d="M 533.5 1447.0 L 533.5 1458.6 L 538.7 1458.6" id="100,97" /><path d="M 540.2 1493.3 L 540.2 1504.9 L 548.8 1504.9" id="99,96" /><path d="M 639.5 1030.5 L 639.5 1042.1 L 650.6 1042.1" id="98,95" /><path d="M 99.5 70.1 L 99.5 62.4 L 244.5 62.4" id="187,94" /><path d="M 99.5 70.1 L 99.5 77.8 L 289.4 77.8" id="187,93" /><path d="M 141.3 181.5 L 141.3 93.2 L 316.2 93.2" id="186,92" /><path d="M 275.6 116.4 L 275.6 108.7 L 416.5 108.7" id="182,91" /><path d="M 275.6 116.4 L 275.6 124.1 L 466.3 124.1" id="182,90" /><path d="M 213.2 158.8 L 213.2 139.5 L 302.4 139.5" id="181,89" /><path d="M 348.7 162.7 L 348.7 155.0 L 410.4 155.0" id="173,88" /><path d="M 348.7 162.7 L 348.7 170.4 L 453.0 170.4" id="173,87" /><path d="M 271.6 193.5 L 271.6 185.8 L 316.2 185.8" id="172,86" /><path d="M 271.6 193.5 L 271.6 201.2 L 403.5 201.2" id="172,85" /><path d="M 348.3 224.4 L 348.3 216.7 L 506.3 216.7" id="171,84" /><path d="M 348.3 224.4 L 348.3 232.1 L 452.0 232.1" id="171,83" /><path d="M 253.8 259.1 L 253.8 247.5 L 335.5 247.5" id="170,82" /><path d="M 300.6 270.7 L 300.6 263.0 L 392.1 263.0" id="165,81" /><path d="M 300.6 270.7 L 300.6 278.4 L 359.1 278.4" id="165,80" /><path d="M 271.0 301.5 L 271.0 293.8 L 360.0 293.8" id="169,79" /><path d="M 271.0 301.5 L 271.0 309.2 L 469.2 309.2" id="169,78" /><path d="M 275.4 332.4 L 275.4 324.7 L 442.2 324.7" id="164,77" /><path d="M 275.4 332.4 L 275.4 340.1 L 366.7 340.1" id="164,76" /><path d="M 292.7 369.0 L 292.7 355.5 L 463.1 355.5" id="163,75" /><path d="M 317.6 382.5 L 317.6 370.9 L 395.5 370.9" id="159,74" /><path d="M 332.0 394.1 L 332.0 386.4 L 379.2 386.4" id="152,73" /><path d="M 332.0 394.1 L 332.0 401.8 L 402.2 401.8" id="152,72" /><path d="M 264.0 437.5 L 264.0 417.2 L 359.3 417.2" id="175,71" /><path d="M 288.7 457.7 L 288.7 432.7 L 419.4 432.7" id="167,70" /><path d="M 322.3 459.7 L 322.3 448.1 L 389.4 448.1" id="158,69" /><path d="M 344.5 471.2 L 344.5 463.5 L 410.3 463.5" id="151,68" /><path d="M 344.5 471.2 L 344.5 478.9 L 389.0 478.9" id="151,67" /><path d="M 378.5 505.9 L 378.5 494.4 L 407.4 494.4" id="157,66" /><path d="M 395.6 517.5 L 395.6 509.8 L 434.1 509.8" id="150,65" /><path d="M 395.6 517.5 L 395.6 525.2 L 418.5 525.2" id="150,64" /><path d="M 244.5 602.8 L 244.5 540.7 L 372.0 540.7" id="174,63" /><path d="M 349.4 567.7 L 349.4 556.1 L 469.3 556.1" id="156,62" /><path d="M 395.3 579.2 L 395.3 571.5 L 454.2 571.5" id="149,61" /><path d="M 395.3 579.2 L 395.3 586.9 L 419.4 586.9" id="149,60" /><path d="M 340.4 615.9 L 340.4 602.4 L 457.3 602.4" id="155,59" /><path d="M 394.4 629.4 L 394.4 617.8 L 444.5 617.8" id="148,58" /><path d="M 408.3 640.9 L 408.3 633.2 L 505.2 633.2" id="144,57" /><path d="M 408.3 640.9 L 408.3 648.6 L 467.1 648.6" id="144,56" /><path d="M 330.1 675.6 L 330.1 664.1 L 344.5 664.1" id="154,55" /><path d="M 355.2 687.2 L 355.2 679.5 L 378.5 679.5" id="147,54" /><path d="M 355.2 687.2 L 355.2 694.9 L 484.6 694.9" id="147,53" /><path d="M 363.4 721.9 L 363.4 710.4 L 394.9 710.4" id="146,52" /><path d="M 389.0 733.5 L 389.0 725.8 L 403.6 725.8" id="143,51" /><path d="M 389.0 733.5 L 389.0 741.2 L 407.9 741.2" id="143,50" /><path d="M 340.9 880.0 L 340.9 756.6 L 415.1 756.6" id="145,49" /><path d="M 428.8 779.8 L 428.8 772.1 L 496.9 772.1" id="136,48" /><path d="M 428.8 779.8 L 428.8 787.5 L 607.0 787.5" id="136,47" /><path d="M 474.3 817.4 L 474.3 802.9 L 525.9 802.9" id="135,46" /><path d="M 478.1 831.9 L 478.1 818.4 L 505.9 818.4" id="130,45" /><path d="M 525.1 845.4 L 525.1 833.8 L 540.5 833.8" id="124,44" /><path d="M 528.1 856.9 L 528.1 849.2 L 541.4 849.2" id="116,43" /><path d="M 528.1 856.9 L 528.1 864.6 L 545.3 864.6" id="116,42" /><path d="M 531.2 887.8 L 531.2 880.1 L 567.6 880.1" id="134,41" /><path d="M 531.2 887.8 L 531.2 895.5 L 561.9 895.5" id="134,40" /><path d="M 486.4 936.8 L 486.4 910.9 L 540.1 910.9" id="133,39" /><path d="M 623.9 937.9 L 623.9 926.4 L 653.5 926.4" id="123,38" /><path d="M 624.7 949.5 L 624.7 941.8 L 658.7 941.8" id="115,37" /><path d="M 624.7 949.5 L 624.7 957.2 L 641.7 957.2" id="115,36" /><path d="M 548.3 987.6 L 548.3 972.6 L 634.3 972.6" id="122,35" /><path d="M 615.7 1002.5 L 615.7 988.1 L 661.1 988.1" id="114,34" /><path d="M 621.7 1017.0 L 621.7 1003.5 L 624.7 1003.5" id="107,33" /><path d="M 639.5 1030.5 L 639.5 1018.9 L 664.0 1018.9" id="98,32" /><path d="M 650.6 1042.1 L 650.6 1034.3 L 655.7 1034.3" id="95,31" /><path d="M 650.6 1042.1 L 650.6 1049.8 L 689.9 1049.8" id="95,30" /><path d="M 385.1 1151.1 L 385.1 1065.2 L 501.9 1065.2" id="140,29" /><path d="M 453.5 1092.2 L 453.5 1080.6 L 482.6 1080.6" id="128,28" /><path d="M 496.9 1103.8 L 496.9 1096.1 L 515.3 1096.1" id="121,27" /><path d="M 496.9 1103.8 L 496.9 1111.5 L 559.0 1111.5" id="121,26" /><path d="M 535.5 1134.6 L 535.5 1126.9 L 599.8 1126.9" id="113,25" /><path d="M 535.5 1134.6 L 535.5 1142.3 L 568.7 1142.3" id="113,24" /><path d="M 517.4 1169.3 L 517.4 1157.8 L 557.3 1157.8" id="112,23" /><path d="M 533.0 1180.9 L 533.0 1173.2 L 564.8 1173.2" id="106,22" /><path d="M 533.0 1180.9 L 533.0 1188.6 L 561.9 1188.6" id="106,21" /><path d="M 458.4 1223.3 L 458.4 1204.1 L 607.6 1204.1" id="119,20" /><path d="M 510.3 1227.2 L 510.3 1219.5 L 543.5 1219.5" id="105,19" /><path d="M 510.3 1227.2 L 510.3 1234.9 L 527.1 1234.9" id="105,18" /><path d="M 518.0 1258.1 L 518.0 1250.3 L 527.9 1250.3" id="104,17" /><path d="M 518.0 1258.1 L 518.0 1265.8 L 534.8 1265.8" id="104,16" /><path d="M 450.9 1288.9 L 450.9 1281.2 L 590.2 1281.2" id="126,15" /><path d="M 450.9 1288.9 L 450.9 1296.6 L 577.1 1296.6" id="126,14" /><path d="M 459.6 1325.5 L 459.6 1312.0 L 576.5 1312.0" id="118,13" /><path d="M 491.4 1339.0 L 491.4 1327.5 L 658.8 1327.5" id="110,12" /><path d="M 575.7 1350.6 L 575.7 1342.9 L 605.2 1342.9" id="103,11" /><path d="M 575.7 1350.6 L 575.7 1358.3 L 677.9 1358.3" id="103,10" /><path d="M 518.8 1381.5 L 518.8 1373.8 L 571.7 1373.8" id="102,9" /><path d="M 518.8 1381.5 L 518.8 1389.2 L 583.7 1389.2" id="102,8" /><path d="M 543.5 1412.3 L 543.5 1404.6 L 596.8 1404.6" id="101,7" /><path d="M 543.5 1412.3 L 543.5 1420.0 L 620.0 1420.0" id="101,6" /><path d="M 533.5 1447.0 L 533.5 1435.5 L 616.6 1435.5" id="100,5" /><path d="M 538.7 1458.6 L 538.7 1450.9 L 590.1 1450.9" id="97,4" /><path d="M 538.7 1458.6 L 538.7 1466.3 L 566.8 1466.3" id="97,3" /><path d="M 540.2 1493.3 L 540.2 1481.8 L 543.3 1481.8" id="99,2" /><path d="M 548.8 1504.9 L 548.8 1497.2 L 566.4 1497.2" id="96,1" /><path d="M 548.8 1504.9 L 548.8 1512.6 L 580.3 1512.6" id="96,0" /></g><g class="toytree-AlignEdges" style="stroke:rgb(66.3%,66.3%,66.3%);stroke-dasharray:2, 4;stroke-linecap:round;stroke-opacity:1.0;stroke-width:2"><path d="M 689.9 1512.6 L 580.3 1512.6" /><path d="M 689.9 1497.2 L 566.4 1497.2" /><path d="M 689.9 1481.8 L 543.3 1481.8" /><path d="M 689.9 1466.3 L 566.8 1466.3" /><path d="M 689.9 1450.9 L 590.1 1450.9" /><path d="M 689.9 1435.5 L 616.6 1435.5" /><path d="M 689.9 1420.0 L 620.0 1420.0" /><path d="M 689.9 1404.6 L 596.8 1404.6" /><path d="M 689.9 1389.2 L 583.7 1389.2" /><path d="M 689.9 1373.8 L 571.7 1373.8" /><path d="M 689.9 1358.3 L 677.9 1358.3" /><path d="M 689.9 1342.9 L 605.2 1342.9" /><path d="M 689.9 1327.5 L 658.8 1327.5" /><path d="M 689.9 1312.0 L 576.5 1312.0" /><path d="M 689.9 1296.6 L 577.1 1296.6" /><path d="M 689.9 1281.2 L 590.2 1281.2" /><path d="M 689.9 1265.8 L 534.8 1265.8" /><path d="M 689.9 1250.3 L 527.9 1250.3" /><path d="M 689.9 1234.9 L 527.1 1234.9" /><path d="M 689.9 1219.5 L 543.5 1219.5" /><path d="M 689.9 1204.1 L 607.6 1204.1" /><path d="M 689.9 1188.6 L 561.9 1188.6" /><path d="M 689.9 1173.2 L 564.8 1173.2" /><path d="M 689.9 1157.8 L 557.3 1157.8" /><path d="M 689.9 1142.3 L 568.7 1142.3" /><path d="M 689.9 1126.9 L 599.8 1126.9" /><path d="M 689.9 1111.5 L 559.0 1111.5" /><path d="M 689.9 1096.1 L 515.3 1096.1" /><path d="M 689.9 1080.6 L 482.6 1080.6" /><path d="M 689.9 1065.2 L 501.9 1065.2" /><path d="M 689.9 1049.8 L 689.9 1049.8" /><path d="M 689.9 1034.3 L 655.7 1034.3" /><path d="M 689.9 1018.9 L 664.0 1018.9" /><path d="M 689.9 1003.5 L 624.7 1003.5" /><path d="M 689.9 988.1 L 661.1 988.1" /><path d="M 689.9 972.6 L 634.3 972.6" /><path d="M 689.9 957.2 L 641.7 957.2" /><path d="M 689.9 941.8 L 658.7 941.8" /><path d="M 689.9 926.4 L 653.5 926.4" /><path d="M 689.9 910.9 L 540.1 910.9" /><path d="M 689.9 895.5 L 561.9 895.5" /><path d="M 689.9 880.1 L 567.6 880.1" /><path d="M 689.9 864.6 L 545.3 864.6" /><path d="M 689.9 849.2 L 541.4 849.2" /><path d="M 689.9 833.8 L 540.5 833.8" /><path d="M 689.9 818.4 L 505.9 818.4" /><path d="M 689.9 802.9 L 525.9 802.9" /><path d="M 689.9 787.5 L 607.0 787.5" /><path d="M 689.9 772.1 L 496.9 772.1" /><path d="M 689.9 756.6 L 415.1 756.6" /><path d="M 689.9 741.2 L 407.9 741.2" /><path d="M 689.9 725.8 L 403.6 725.8" /><path d="M 689.9 710.4 L 394.9 710.4" /><path d="M 689.9 694.9 L 484.6 694.9" /><path d="M 689.9 679.5 L 378.5 679.5" /><path d="M 689.9 664.1 L 344.5 664.1" /><path d="M 689.9 648.6 L 467.1 648.6" /><path d="M 689.9 633.2 L 505.2 633.2" /><path d="M 689.9 617.8 L 444.5 617.8" /><path d="M 689.9 602.4 L 457.3 602.4" /><path d="M 689.9 586.9 L 419.4 586.9" /><path d="M 689.9 571.5 L 454.2 571.5" /><path d="M 689.9 556.1 L 469.3 556.1" /><path d="M 689.9 540.7 L 372.0 540.7" /><path d="M 689.9 525.2 L 418.5 525.2" /><path d="M 689.9 509.8 L 434.1 509.8" /><path d="M 689.9 494.4 L 407.4 494.4" /><path d="M 689.9 478.9 L 389.0 478.9" /><path d="M 689.9 463.5 L 410.3 463.5" /><path d="M 689.9 448.1 L 389.4 448.1" /><path d="M 689.9 432.7 L 419.4 432.7" /><path d="M 689.9 417.2 L 359.3 417.2" /><path d="M 689.9 401.8 L 402.2 401.8" /><path d="M 689.9 386.4 L 379.2 386.4" /><path d="M 689.9 370.9 L 395.5 370.9" /><path d="M 689.9 355.5 L 463.1 355.5" /><path d="M 689.9 340.1 L 366.7 340.1" /><path d="M 689.9 324.7 L 442.2 324.7" /><path d="M 689.9 309.2 L 469.2 309.2" /><path d="M 689.9 293.8 L 360.0 293.8" /><path d="M 689.9 278.4 L 359.1 278.4" /><path d="M 689.9 263.0 L 392.1 263.0" /><path d="M 689.9 247.5 L 335.5 247.5" /><path d="M 689.9 232.1 L 452.0 232.1" /><path d="M 689.9 216.7 L 506.3 216.7" /><path d="M 689.9 201.2 L 403.5 201.2" /><path d="M 689.9 185.8 L 316.2 185.8" /><path d="M 689.9 170.4 L 453.0 170.4" /><path d="M 689.9 155.0 L 410.4 155.0" /><path d="M 689.9 139.5 L 302.4 139.5" /><path d="M 689.9 124.1 L 466.3 124.1" /><path d="M 689.9 108.7 L 416.5 108.7" /><path d="M 689.9 93.2 L 316.2 93.2" /><path d="M 689.9 77.8 L 289.4 77.8" /><path d="M 689.9 62.4 L 244.5 62.4" /></g><g class="toytree-TipLabels" style="fill:rgb(14.9%,14.9%,14.9%);fill-opacity:1.0;font-family:helvetica;font-size:11px;font-weight:normal;stroke:none;white-space:pre"><g transform="translate(689.94,1512.61)rotate(0)"><a href="https://glottolog.org/resource/languoid/id/sham1280#############"><text x="15.00" y="2.81" style="" fill="#0000ff">ShambalaG23 - Shambala [sham1280#############]</text></a></g><g transform="translate(689.94,1497.18)rotate(0)"><a href="https://glottolog.org/resource/languoid/id/zigu1244#############"><text x="15.00" y="2.81" style="" fill="#0000ff">ZigulaG31 - Zigula-Mushungulu [zigu1244#############]</text></a></g><g transform="translate(689.94,1481.76)rotate(0)"><a href="https://glottolog.org/resource/languoid/id/ngul1246#############"><text x="15.00" y="2.81" style="" fill="#0000ff">NguluG34 - Ngulu [ngul1246#############]</text></a></g><g transform="translate(689.94,1466.33)rotate(0)"><a href="https://glottolog.org/resource/languoid/id/kagu1239#############"><text x="15.00" y="2.81" style="" fill="#0000ff">KaguruG12 - Kagulu [kagu1239#############]</text></a></g><g transform="translate(689.94,1450.90)rotate(0)"><a href="https://glottolog.org/resource/languoid/id/gogo1263#############"><text x="15.00" y="2.81" style="" fill="#0000ff">GogoG11 - Gogo [gogo1263#############]</text></a></g><g transform="translate(689.94,1435.47)rotate(0)"><a href="https://glottolog.org/resource/languoid/id/lugu1238#############"><text x="15.00" y="2.81" style="" fill="#0000ff">LuguruG35 - Luguru [lugu1238#############]</text></a></g><g transform="translate(689.94,1420.04)rotate(0)"><a href="https://glottolog.org/resource/languoid/id/poko1261#############"><text x="15.00" y="2.81" style="" fill="#0000ff">PokomoE711 - Pokomo [poko1261#############]</text></a></g><g transform="translate(689.94,1404.62)rotate(0)"><a href="https://glottolog.org/resource/languoid/id/pemb1239#############"><text x="15.00" y="2.81" style="" fill="#0000ff">HadimuG43c - Pemba [pemb1239#############]</text></a></g><g transform="translate(689.94,1389.19)rotate(0)"><a href="https://glottolog.org/resource/languoid/id/giry1241#############"><text x="15.00" y="2.81" style="" fill="#0000ff">GiryamaE72a1 - Giryama [giry1241#############]</text></a></g><g transform="translate(689.94,1373.76)rotate(0)"><a href="https://glottolog.org/resource/languoid/id/digo1243#############"><text x="15.00" y="2.81" style="" fill="#0000ff">DigoE731 - Digo [digo1243#############]</text></a></g><g transform="translate(689.94,1358.33)rotate(0)"><a href="https://glottolog.org/resource/languoid/id/kiku1240#############"><text x="15.00" y="2.81" style="" fill="#0000ff">GikuyuE51 - Kikuyu [kiku1240#############]</text></a></g><g transform="translate(689.94,1342.90)rotate(0)"><a href="https://glottolog.org/resource/languoid/id/kamb1297#############"><text x="15.00" y="2.81" style="" fill="#0000ff">KambaE55 - Kamba (Kenya) [kamb1297#############]</text></a></g><g transform="translate(689.94,1327.48)rotate(0)"><a href="https://glottolog.org/resource/languoid/id/moch1256#############"><text x="15.00" y="2.81" style="" fill="#0000ff">CagaE621 - Mochi [moch1256#############]</text></a></g><g transform="translate(689.94,1312.05)rotate(0)"><a href="https://glottolog.org/resource/languoid/id/saga1256#############"><text x="15.00" y="2.81" style="" fill="#0000ff">SagalaE74b - Sagala [saga1256#############]</text></a></g><g transform="translate(689.94,1296.62)rotate(0)"><a href="https://glottolog.org/resource/languoid/id/yaoo1241#############"><text x="15.00" y="2.81" style="" fill="#0000ff">YaoP212 - Yao [yaoo1241#############]</text></a></g><g transform="translate(689.94,1281.19)rotate(0)"><a href="https://glottolog.org/resource/languoid/id/nyak1260#############"><text x="15.00" y="2.81" style="" fill="#0000ff">NyakyusaM312 - Nyakyusa-Ngonde [nyak1260#############]</text></a></g><g transform="translate(689.94,1265.77)rotate(0)"><a href="https://glottolog.org/resource/languoid/id/kiny1244#############"><text x="15.00" y="2.81" style="" fill="#0000ff">RwandaJ611 - Kinyarwanda [kiny1244#############]</text></a></g><g transform="translate(689.94,1250.34)rotate(0)"><a href="https://glottolog.org/resource/languoid/id/rund1242#############"><text x="15.00" y="2.81" style="" fill="#0000ff">RundiJ62 - Rundi [rund1242#############]</text></a></g><g transform="translate(689.94,1234.91)rotate(0)"><a href="https://glottolog.org/resource/languoid/id/hund1239#############"><text x="15.00" y="2.81" style="" fill="#0000ff">HundeJ51 - Hunde [hund1239#############]</text></a></g><g transform="translate(689.94,1219.48)rotate(0)"><a href="https://glottolog.org/resource/languoid/id/shii1238#############"><text x="15.00" y="2.81" style="" fill="#0000ff">ShiJ53 - Shi [shii1238#############]</text></a></g><g transform="translate(689.94,1204.05)rotate(0)"><a href="https://glottolog.org/resource/languoid/id/lega1249#############"><text x="15.00" y="2.81" style="" fill="#0000ff">LegaD253 - Lega-Shabunda [lega1249#############]</text></a></g><g transform="translate(689.94,1188.63)rotate(0)"><a href="https://glottolog.org/resource/languoid/id/zinz1238#############"><text x="15.00" y="2.81" style="" fill="#0000ff">ZinzaJ23 - Zinza [zinz1238#############]</text></a></g><g transform="translate(689.94,1173.20)rotate(0)"><a href="https://glottolog.org/resource/languoid/id/hima1248#############"><text x="15.00" y="2.81" style="" fill="#0000ff">HimaJ13 - Hima [hima1248#############]</text></a></g><g transform="translate(689.94,1157.77)rotate(0)"><a href="https://glottolog.org/resource/languoid/id/haya1250#############"><text x="15.00" y="2.81" style="" fill="#0000ff">HayaJ22H - Haya [haya1250#############]</text></a></g><g transform="translate(689.94,1142.34)rotate(0)"><a href="https://glottolog.org/resource/languoid/id/soga1242#############"><text x="15.00" y="2.81" style="" fill="#0000ff">SogaJ16 - Soga [soga1242#############]</text></a></g><g transform="translate(689.94,1126.91)rotate(0)"><a href="https://glottolog.org/resource/languoid/id/gand1255#############"><text x="15.00" y="2.81" style="" fill="#0000ff">GandaJ15 - Ganda [gand1255#############]</text></a></g><g transform="translate(689.94,1111.49)rotate(0)"><a href="https://glottolog.org/resource/languoid/id/suku1261#############"><text x="15.00" y="2.81" style="" fill="#0000ff">SukumaF21 - Sukuma [suku1261#############]</text></a></g><g transform="translate(689.94,1096.06)rotate(0)"><a href="https://glottolog.org/resource/languoid/id/nyam1276#############"><text x="15.00" y="2.81" style="" fill="#0000ff">NyamweziF22 - Nyamwezi [nyam1276#############]</text></a></g><g transform="translate(689.94,1080.63)rotate(0)"><a href="https://glottolog.org/resource/languoid/id/sumb1240#############"><text x="15.00" y="2.81" style="" fill="#0000ff">SumbwaF23 - Sumbwa [sumb1240#############]</text></a></g><g transform="translate(689.94,1065.20)rotate(0)"><a href="https://glottolog.org/resource/languoid/id/mamb1296#############"><text x="15.00" y="2.81" style="" fill="#0000ff">MambweM15 - Mambwe-Lungu [mamb1296#############]</text></a></g><g transform="translate(689.94,1049.77)rotate(0)"><a href="https://glottolog.org/resource/languoid/id/zulu1248#############"><text x="15.00" y="2.81" style="" fill="#0000ff">NdebeleS44 - Zulu [zulu1248#############]</text></a></g><g transform="translate(689.94,1034.35)rotate(0)"><a href="https://glottolog.org/resource/languoid/id/swat1243#############"><text x="15.00" y="2.81" style="" fill="#0000ff">SwatiS43 - Swati [swat1243#############]</text></a></g><g transform="translate(689.94,1018.92)rotate(0)"><a href="https://glottolog.org/resource/languoid/id/xhos1239#############"><text x="15.00" y="2.81" style="" fill="#0000ff">XhosaS41 - Xhosa [xhos1239#############]</text></a></g><g transform="translate(689.94,1003.49)rotate(0)"><a href="https://glottolog.org/resource/languoid/id/zulu1248#############"><text x="15.00" y="2.81" style="" fill="#0000ff">ZuluS42 - Zulu [zulu1248#############]</text></a></g><g transform="translate(689.94,988.06)rotate(0)"><a href="https://glottolog.org/resource/languoid/id/tanz1241#############"><text x="15.00" y="2.81" style="" fill="#0000ff">NgoniS45 - Tanzanian Ngoni [tanz1241#############]</text></a></g><g transform="translate(689.94,972.63)rotate(0)"><a href="https://glottolog.org/resource/languoid/id/tson1249#############"><text x="15.00" y="2.81" style="" fill="#0000ff">TsongaS53 - Tsonga [tson1249#############]</text></a></g><g transform="translate(689.94,957.21)rotate(0)"><a href="https://glottolog.org/resource/languoid/id/sout2807#############"><text x="15.00" y="2.81" style="" fill="#0000ff">SothoS33 - Southern Sotho [sout2807#############]</text></a></g><g transform="translate(689.94,941.78)rotate(0)"><a href="https://glottolog.org/resource/languoid/id/lozi1239#############"><text x="15.00" y="2.81" style="" fill="#0000ff">LoziS34 - Lozi [lozi1239#############]</text></a></g><g transform="translate(689.94,926.35)rotate(0)"><a href="https://glottolog.org/resource/languoid/id/tswa1253#############"><text x="15.00" y="2.81" style="" fill="#0000ff">TswanaS31 - Tswana [tswa1253#############]</text></a></g><g transform="translate(689.94,910.92)rotate(0)"><a href="https://glottolog.org/resource/languoid/id/vend1245#############"><text x="15.00" y="2.81" style="" fill="#0000ff">VendaS21 - Venda [vend1245#############]</text></a></g><g transform="translate(689.94,895.50)rotate(0)"><a href="https://glottolog.org/resource/languoid/id/shon1251#############"><text x="15.00" y="2.81" style="" fill="#0000ff">ShonaS10 - Shona [shon1251#############]</text></a></g><g transform="translate(689.94,880.07)rotate(0)"><a href="https://glottolog.org/resource/languoid/id/ndau1241#############"><text x="15.00" y="2.81" style="" fill="#0000ff">NdauS15 - Ndau [ndau1241#############]</text></a></g><g transform="translate(689.94,864.64)rotate(0)"><a href="https://glottolog.org/resource/languoid/id/nyan1308#############"><text x="15.00" y="2.81" style="" fill="#0000ff">NyanjaN31a - Nyanja [nyan1308#############]</text></a></g><g transform="translate(689.94,849.21)rotate(0)"><a href="https://glottolog.org/resource/languoid/id/chew1246#############"><text x="15.00" y="2.81" style="" fill="#0000ff">CewaN31b - Chewa [chew1246#############]</text></a></g><g transform="translate(689.94,833.78)rotate(0)"><a href="https://glottolog.org/resource/languoid/id/nyan1308#############"><text x="15.00" y="2.81" style="" fill="#0000ff">NyasaN31 - Nyanja [nyan1308#############]</text></a></g><g transform="translate(689.94,818.36)rotate(0)"><a href="https://glottolog.org/resource/languoid/id/kund1255#############"><text x="15.00" y="2.81" style="" fill="#0000ff">KundaN42 - Chikunda [kund1255#############]</text></a></g><g transform="translate(689.94,802.93)rotate(0)"><a href="https://glottolog.org/resource/languoid/id/nucl1396#############"><text x="15.00" y="2.81" style="" fill="#0000ff">SenaN44 - Sena [nucl1396#############]</text></a></g><g transform="translate(689.94,787.50)rotate(0)"><a href="https://glottolog.org/resource/languoid/id/makh1264#############"><text x="15.00" y="2.81" style="" fill="#0000ff">MakwaP311 - Makhuwa [makh1264#############]</text></a></g><g transform="translate(689.94,772.07)rotate(0)"><a href="https://glottolog.org/resource/languoid/id/tumb1250#############"><text x="15.00" y="2.81" style="" fill="#0000ff">TumbukaN212 - Tumbuka [tumb1250#############]</text></a></g><g transform="translate(689.94,756.64)rotate(0)"><a href="https://glottolog.org/resource/languoid/id/tong1318#############"><text x="15.00" y="2.81" style="" fill="#0000ff">TongaM641 - Tonga (Zambia) [tong1318#############]</text></a></g><g transform="translate(689.94,741.22)rotate(0)"><a href="https://glottolog.org/resource/languoid/id/lamb1271#############"><text x="15.00" y="2.81" style="" fill="#0000ff">LambaM54 - Lamba [lamb1271#############]</text></a></g><g transform="translate(689.94,725.79)rotate(0)"><a href="https://glottolog.org/resource/languoid/id/lala1264#############"><text x="15.00" y="2.81" style="" fill="#0000ff">LalaM52 - Lala-Bisa [lala1264#############]</text></a></g><g transform="translate(689.94,710.36)rotate(0)"><a href="https://glottolog.org/resource/languoid/id/bemb1257#############"><text x="15.00" y="2.81" style="" fill="#0000ff">BembaM42 - Bemba (Zambia) [bemb1257#############]</text></a></g><g transform="translate(689.94,694.93)rotate(0)"><a href="https://glottolog.org/resource/languoid/id/song1303#############"><text x="15.00" y="2.81" style="" fill="#0000ff">SongeD10S - Songe [song1303#############]</text></a></g><g transform="translate(689.94,679.50)rotate(0)"><a href="https://glottolog.org/resource/languoid/id/luba1250#############"><text x="15.00" y="2.81" style="" fill="#0000ff">LubaL33 - Luba-Katanga [luba1250#############]</text></a></g><g transform="translate(689.94,664.08)rotate(0)"><a href="https://glottolog.org/resource/languoid/id/kaon1241#############"><text x="15.00" y="2.81" style="" fill="#0000ff">KaondeL42 - Kaonde [kaon1241#############]</text></a></g><g transform="translate(689.94,648.65)rotate(0)"><a href="https://glottolog.org/resource/languoid/id/chok1245#############"><text x="15.00" y="2.81" style="" fill="#0000ff">CiokweK11 - Chokwe [chok1245#############]</text></a></g><g transform="translate(689.94,633.22)rotate(0)"><a href="https://glottolog.org/resource/languoid/id/ndem1248#############"><text x="15.00" y="2.81" style="" fill="#0000ff">NdembuK221 - Ndembu [ndem1248#############]</text></a></g><g transform="translate(689.94,617.79)rotate(0)"><a href="https://glottolog.org/resource/languoid/id/luva1239#############"><text x="15.00" y="2.81" style="" fill="#0000ff">LwenaK141 - Luvale [luva1239#############]</text></a></g><g transform="translate(689.94,602.37)rotate(0)"><a href="https://glottolog.org/resource/languoid/id/nyem1238#############"><text x="15.00" y="2.81" style="" fill="#0000ff">GangelaK19 - Nyemba [nyem1238#############]</text></a></g><g transform="translate(689.94,586.94)rotate(0)"><a href="https://glottolog.org/resource/languoid/id/ndon1254#############"><text x="15.00" y="2.81" style="" fill="#0000ff">NdongaR22 - Ndonga [ndon1254#############]</text></a></g><g transform="translate(689.94,571.51)rotate(0)"><a href="https://glottolog.org/resource/languoid/id/here1253#############"><text x="15.00" y="2.81" style="" fill="#0000ff">HereroR31 - Herero [here1253#############]</text></a></g><g transform="translate(689.94,556.08)rotate(0)"><a href="https://glottolog.org/resource/languoid/id/umbu1257#############"><text x="15.00" y="2.81" style="" fill="#0000ff">UmbunduR111 - Umbundu [umbu1257#############]</text></a></g><g transform="translate(689.94,540.65)rotate(0)"><a href="https://glottolog.org/resource/languoid/id/song1300#############"><text x="15.00" y="2.81" style="" fill="#0000ff">BinjaD241 - Songoora [song1300#############]</text></a></g><g transform="translate(689.94,525.23)rotate(0)"><a href="https://glottolog.org/resource/languoid/id/suku1259#############"><text x="15.00" y="2.81" style="" fill="#0000ff">SukuH32 - Suku [suku1259#############]</text></a></g><g transform="translate(689.94,509.80)rotate(0)"><a href="https://glottolog.org/resource/languoid/id/yaka1269#############"><text x="15.00" y="2.81" style="" fill="#0000ff">YakaH314 - Yaka-Pelende-Lonzo [yaka1269#############]</text></a></g><g transform="translate(689.94,494.37)rotate(0)"><a href="https://glottolog.org/resource/languoid/id/yaka1269#############"><text x="15.00" y="2.81" style="" fill="#0000ff">YakaKasongoH312 - Yaka-Pelende-Lonzo [yaka1269#############]</text></a></g><g transform="translate(689.94,478.94)rotate(0)"><a href="https://glottolog.org/resource/languoid/id/east2782#############"><text x="15.00" y="2.81" style="" fill="#0000ff">SikongoH16h - Eastern Kikongo [east2782#############]</text></a></g><g transform="translate(689.94,463.51)rotate(0)"><a href="https://glottolog.org/resource/languoid/id/suun1239#############"><text x="15.00" y="2.81" style="" fill="#0000ff">SundiH16i4 - Suundi [suun1239#############]</text></a></g><g transform="translate(689.94,448.09)rotate(0)"><a href="https://glottolog.org/resource/languoid/id/yomb1244#############"><text x="15.00" y="2.81" style="" fill="#0000ff">YombeH12b1 - Yombe [yomb1244#############]</text></a></g><g transform="translate(689.94,432.66)rotate(0)"><a href="https://glottolog.org/resource/languoid/id/teke1276#############"><text x="15.00" y="2.81" style="" fill="#0000ff">TekeB735 - Teke-Tyee [teke1276#############]</text></a></g><g transform="translate(689.94,417.23)rotate(0)"><a href="https://glottolog.org/resource/languoid/id/mpii1240#############"><text x="15.00" y="2.81" style="" fill="#0000ff">MadzingB80Mp1 - Mpiin [mpii1240#############]</text></a></g><g transform="translate(689.94,401.80)rotate(0)"><a href="https://glottolog.org/resource/languoid/id/mong1338#############"><text x="15.00" y="2.81" style="" fill="#0000ff">MongoNkundoC611 - Mongo [mong1338#############]</text></a></g><g transform="translate(689.94,386.37)rotate(0)"><a href="https://glottolog.org/resource/languoid/id/kela1254#############"><text x="15.00" y="2.81" style="" fill="#0000ff">KelaC75 - Kela (Democratic Republic of Congo) [kela1254#############]</text></a></g><g transform="translate(689.94,370.95)rotate(0)"><a href="https://glottolog.org/resource/languoid/id/mong1338#############"><text x="15.00" y="2.81" style="" fill="#0000ff">MongoC613 - Mongo [mong1338#############]</text></a></g><g transform="translate(689.94,355.52)rotate(0)"><a href="https://glottolog.org/resource/languoid/id/tete1250#############"><text x="15.00" y="2.81" style="" fill="#0000ff">TetelaC711 - Tetela [tete1250#############]</text></a></g><g transform="translate(689.94,340.09)rotate(0)"><a href="https://glottolog.org/resource/languoid/id/bush1247#############"><text x="15.00" y="2.81" style="" fill="#0000ff">LeleC841 - Bushoong [bush1247#############]</text></a></g><g transform="translate(689.94,324.66)rotate(0)"><a href="https://glottolog.org/resource/languoid/id/saka1287#############"><text x="15.00" y="2.81" style="" fill="#0000ff">SakataC34 - Sakata [saka1287#############]</text></a></g><g transform="translate(689.94,309.23)rotate(0)"><a href="https://glottolog.org/resource/languoid/id/mbes1238#############"><text x="15.00" y="2.81" style="" fill="#0000ff">MbesaC51 - Mbesa [mbes1238#############]</text></a></g><g transform="translate(689.94,293.81)rotate(0)"><a href="https://glottolog.org/resource/languoid/id/kele1255#############"><text x="15.00" y="2.81" style="" fill="#0000ff">LikileC57 - Kele-Foma [kele1255#############]</text></a></g><g transform="translate(689.94,278.38)rotate(0)"><a href="https://glottolog.org/resource/languoid/id/doko1244#############"><text x="15.00" y="2.81" style="" fill="#0000ff">DokoC40D - Doko (Democratic Republic of Congo) [doko1244#############]</text></a></g><g transform="translate(689.94,262.95)rotate(0)"><a href="https://glottolog.org/resource/languoid/id/ngom1268#############"><text x="15.00" y="2.81" style="" fill="#0000ff">NgombeC41 - Ngombe (Democratic Republic of Congo) [ngom1268#############]</text></a></g><g transform="translate(689.94,247.52)rotate(0)"><a href="https://glottolog.org/resource/languoid/id/ling1263#############"><text x="15.00" y="2.81" style="" fill="#0000ff">LingalaC36 - Kinshasa Lingala [ling1263#############]</text></a></g><g transform="translate(689.94,232.10)rotate(0)"><a href="https://glottolog.org/resource/languoid/id/bera1259#############"><text x="15.00" y="2.81" style="" fill="#0000ff">BiraD322 - Bera [bera1259#############]</text></a></g><g transform="translate(689.94,216.67)rotate(0)"><a href="https://glottolog.org/resource/languoid/id/komo1260#############"><text x="15.00" y="2.81" style="" fill="#0000ff">KumuD372 - Komo (Democratic Republic of Congo) [komo1260#############]</text></a></g><g transform="translate(689.94,201.24)rotate(0)"><a href="https://glottolog.org/resource/languoid/id/pong1251#############"><text x="15.00" y="2.81" style="" fill="#0000ff">DualaA242 - Pongo [pong1251#############]</text></a></g><g transform="translate(689.94,185.81)rotate(0)"><a href="https://glottolog.org/resource/languoid/id/bata1285#############"><text x="15.00" y="2.81" style="" fill="#0000ff">PukuA321 - Batanga [bata1285#############]</text></a></g><g transform="translate(689.94,170.38)rotate(0)"><a href="https://glottolog.org/resource/languoid/id/bako1249#############"><text x="15.00" y="2.81" style="" fill="#0000ff">BakokoA43b - Bakoko [bako1249#############]</text></a></g><g transform="translate(689.94,154.96)rotate(0)"><a href="https://glottolog.org/resource/languoid/id/ntum1238#############"><text x="15.00" y="2.81" style="" fill="#0000ff">FangA751 - Ntum [ntum1238#############]</text></a></g><g transform="translate(689.94,139.53)rotate(0)"><a href="https://glottolog.org/resource/languoid/id/sake1247#############"><text x="15.00" y="2.81" style="" fill="#0000ff">KotaB251 - Sake [sake1247#############]</text></a></g><g transform="translate(689.94,124.10)rotate(0)"><a href="https://glottolog.org/resource/languoid/id/myen1241#############"><text x="15.00" y="2.81" style="" fill="#0000ff">MpongweB11a - Myene [myen1241#############]</text></a></g><g transform="translate(689.94,108.67)rotate(0)"><a href="https://glottolog.org/resource/languoid/id/tsog1243#############"><text x="15.00" y="2.81" style="" fill="#0000ff">TsogoB31 - Tsogo [tsog1243#############]</text></a></g><g transform="translate(689.94,93.24)rotate(0)"><a href="https://glottolog.org/resource/languoid/id/bube1242#############"><text x="15.00" y="2.81" style="" fill="#0000ff">BubiA31 - Bube [bube1242#############]</text></a></g><g transform="translate(689.94,77.82)rotate(0)"><a href="https://glottolog.org/resource/languoid/id/tivv1240#############"><text x="15.00" y="2.81" style="" fill="#0000ff">Tiv802 - Tiv [tivv1240#############]</text></a></g><g transform="translate(689.94,62.39)rotate(0)"><a href="https://glottolog.org/resource/languoid/id/ejag1239#############"><text x="15.00" y="2.81" style="" fill="#0000ff">Ejagham800 - Ejagham [ejag1239#############]</text></a></g></g></g></g><g class="toyplot-coordinates-Axis" id="tce30dee1835e43c599aa2ddd1ac2de12" transform="translate(50.0,1525.0)translate(0,20.0)"><line x1="1.4189372947959706" y1="0" x2="639.9407199530174" y2="0" style="" /><g><line x1="639.9407199530174" y1="0" x2="639.9407199530174" y2="-5" style="" /><line x1="568.9938552132149" y1="0" x2="568.9938552132149" y2="-5" style="" /><line x1="498.0469904734126" y1="0" x2="498.0469904734126" y2="-5" style="" /><line x1="427.1001257336103" y1="0" x2="427.1001257336103" y2="-5" style="" /><line x1="356.1532609938079" y1="0" x2="356.1532609938079" y2="-5" style="" /><line x1="285.20639625400554" y1="0" x2="285.20639625400554" y2="-5" style="" /><line x1="214.2595315142032" y1="0" x2="214.2595315142032" y2="-5" style="" /><line x1="143.3126667744009" y1="0" x2="143.3126667744009" y2="-5" style="" /><line x1="72.36580203459847" y1="0" x2="72.36580203459847" y2="-5" style="" /><line x1="1.4189372947960726" y1="0" x2="1.4189372947960726" y2="-5" style="" /></g><g><g transform="translate(639.9407199530174,6)"><text x="-9.729999999999999" y="8.555" style="fill:rgb(16.1%,15.3%,14.1%);fill-opacity:1.0;font-family:helvetica;font-size:10.0px;font-weight:normal;stroke:none;vertical-align:baseline;white-space:pre">0.00</text></g><g transform="translate(568.9938552132149,6)"><text x="-9.729999999999999" y="8.555" style="fill:rgb(16.1%,15.3%,14.1%);fill-opacity:1.0;font-family:helvetica;font-size:10.0px;font-weight:normal;stroke:none;vertical-align:baseline;white-space:pre">0.04</text></g><g transform="translate(498.0469904734126,6)"><text x="-9.729999999999999" y="8.555" style="fill:rgb(16.1%,15.3%,14.1%);fill-opacity:1.0;font-family:helvetica;font-size:10.0px;font-weight:normal;stroke:none;vertical-align:baseline;white-space:pre">0.08</text></g><g transform="translate(427.1001257336103,6)"><text x="-9.729999999999999" y="8.555" style="fill:rgb(16.1%,15.3%,14.1%);fill-opacity:1.0;font-family:helvetica;font-size:10.0px;font-weight:normal;stroke:none;vertical-align:baseline;white-space:pre">0.12</text></g><g transform="translate(356.1532609938079,6)"><text x="-9.729999999999999" y="8.555" style="fill:rgb(16.1%,15.3%,14.1%);fill-opacity:1.0;font-family:helvetica;font-size:10.0px;font-weight:normal;stroke:none;vertical-align:baseline;white-space:pre">0.15</text></g><g transform="translate(285.20639625400554,6)"><text x="-9.729999999999999" y="8.555" style="fill:rgb(16.1%,15.3%,14.1%);fill-opacity:1.0;font-family:helvetica;font-size:10.0px;font-weight:normal;stroke:none;vertical-align:baseline;white-space:pre">0.19</text></g><g transform="translate(214.2595315142032,6)"><text x="-9.729999999999999" y="8.555" style="fill:rgb(16.1%,15.3%,14.1%);fill-opacity:1.0;font-family:helvetica;font-size:10.0px;font-weight:normal;stroke:none;vertical-align:baseline;white-space:pre">0.23</text></g><g transform="translate(143.3126667744009,6)"><text x="-9.729999999999999" y="8.555" style="fill:rgb(16.1%,15.3%,14.1%);fill-opacity:1.0;font-family:helvetica;font-size:10.0px;font-weight:normal;stroke:none;vertical-align:baseline;white-space:pre">0.27</text></g><g transform="translate(72.36580203459847,6)"><text x="-9.729999999999999" y="8.555" style="fill:rgb(16.1%,15.3%,14.1%);fill-opacity:1.0;font-family:helvetica;font-size:10.0px;font-weight:normal;stroke:none;vertical-align:baseline;white-space:pre">0.31</text></g><g transform="translate(1.4189372947960726,6)"><text x="-9.729999999999999" y="8.555" style="fill:rgb(16.1%,15.3%,14.1%);fill-opacity:1.0;font-family:helvetica;font-size:10.0px;font-weight:normal;stroke:none;vertical-align:baseline;white-space:pre">0.35</text></g></g><g class="toyplot-coordinates-Axis-coordinates" style="visibility:hidden" transform=""><line x1="0" x2="0" y1="-3.0" y2="4.5" style="stroke:rgb(43.9%,50.2%,56.5%);stroke-opacity:1.0;stroke-width:1.0" /><text x="0" y="-6" style="alignment-baseline:alphabetic;fill:rgb(43.9%,50.2%,56.5%);fill-opacity:1.0;font-size:10px;font-weight:normal;stroke:none;text-anchor:middle" /></g></g><g transform="translate(500.0,42.0)"><text x="-188.28599999999997" y="-4.823" style="fill:rgb(16.1%,15.3%,14.1%);fill-opacity:1.0;font-family:helvetica;font-size:14.0px;font-weight:bold;stroke:none;vertical-align:baseline;white-space:pre">Summary tree of a Bayesian analysis of the Bantu family</text></g></g></svg>